<svg width="30" height="30" fill="none" xmlns="http://www.w3.org/2000/svg"><path fill-rule="evenodd" clip-rule="evenodd" d="M15 30c8.284 0 15-6.716 15-15 0-8.284-6.716-15-15-15C6.716 0 0 6.716 0 15c0 8.284 6.716 15 15 15Z" fill="#fff" fill-opacity=".01"/><path fill-rule="evenodd" clip-rule="evenodd" d="M15 10c1.375 0 2.5-1.125 2.5-2.5S16.375 5 15 5a2.507 2.507 0 0 0-2.5 2.5c0 1.375 1.125 2.5 2.5 2.5Zm0 2.5a2.507 2.507 0 0 0-2.5 2.5c0 1.375 1.125 2.5 2.5 2.5s2.5-1.125 2.5-2.5-1.125-2.5-2.5-2.5Zm0 7.5a2.507 2.507 0 0 0-2.5 2.5c0 1.375 1.125 2.5 2.5 2.5s2.5-1.125 2.5-2.5S16.375 20 15 20Z" fill="#272557"/></svg>