<svg width="20" height="20" fill="none" xmlns="http://www.w3.org/2000/svg"><g clip-path="url(#a)"><path d="M16.192 10.813A6.53 6.53 0 0 0 16.25 10a6.4 6.4 0 0 0-.058-.812l1.763-1.38a.415.415 0 0 0 .1-.533l-1.667-2.887c-.104-.18-.32-.255-.508-.18l-2.075.838c-.43-.33-.9-.608-1.409-.82l-.312-2.21a.429.429 0 0 0-.417-.35H8.334a.42.42 0 0 0-.413.35l-.312 2.21c-.509.212-.98.487-1.409.82l-2.075-.838a.417.417 0 0 0-.508.18L1.95 7.275a.417.417 0 0 0 .1.533l1.759 1.38A6.542 6.542 0 0 0 3.75 10c0 .275.025.546.059.813L2.05 12.192a.416.416 0 0 0-.1.533l1.667 2.888a.412.412 0 0 0 .508.179l2.075-.838c.43.33.9.609 1.409.821l.312 2.208a.42.42 0 0 0 .413.35h3.333a.42.42 0 0 0 .413-.35l.312-2.208c.508-.212.98-.487 1.409-.82l2.075.837c.187.07.404 0 .508-.18l1.666-2.887a.418.418 0 0 0-.1-.533l-1.758-1.38Zm-6.191 2.104A2.914 2.914 0 0 1 7.084 10 2.915 2.915 0 0 1 10 7.083 2.914 2.914 0 0 1 12.917 10a2.914 2.914 0 0 1-2.916 2.917Z" fill="#E0E0E0"/></g><defs><clipPath id="a"><path fill="#fff" d="M0 0h20v20H0z"/></clipPath></defs></svg>