<svg width="20" height="21" fill="none" xmlns="http://www.w3.org/2000/svg"><g clip-path="url(#a)"><path d="M10 2.167A8.331 8.331 0 0 0 1.667 10.5 8.331 8.331 0 0 0 10 18.833a8.331 8.331 0 0 0 8.334-8.333A8.331 8.331 0 0 0 10 2.167Zm4.167 11.32-1.18 1.18L10 11.679l-2.987 2.988-1.18-1.18L8.822 10.5 5.834 7.513l1.179-1.18L10 9.321l2.988-2.988 1.179 1.18L11.18 10.5l2.987 2.988Z" fill="#E5ECF9"/></g><defs><clipPath id="a"><path fill="#fff" transform="translate(0 .5)" d="M0 0h20v20H0z"/></clipPath></defs></svg>