<svg width="26" height="20" fill="none" xmlns="http://www.w3.org/2000/svg"><path d="m17.917 15.583-5-5a.757.757 0 0 1-.25-.583c0-.25.084-.417.25-.583l5-5a.806.806 0 0 1 1.167 0 .806.806 0 0 1 0 1.166L14.667 10l4.417 4.417a.806.806 0 0 1 0 1.166.806.806 0 0 1-1.167 0Z" fill="#272557" opacity=".3"/><path d="m11.917 15.583-5-5a.757.757 0 0 1-.25-.583c0-.25.084-.417.25-.583l5-5a.806.806 0 0 1 1.167 0 .806.806 0 0 1 0 1.166L8.667 10l4.417 4.417a.806.806 0 0 1 0 1.166.806.806 0 0 1-1.167 0Z" fill="#272557" opacity=".3"/></svg>