<svg width="205" height="45" fill="none" xmlns="http://www.w3.org/2000/svg"><g clip-path="url(#a)"><path d="M18.971 0C8.545 0 0 8.56 0 19.005c0 4.79 1.725 9.11 4.625 12.487A7.272 7.272 0 0 1 6.9 31.1c3.606 0 6.506 2.75 6.898 6.205 1.647.47 3.371.706 5.174.706 10.505 0 18.972-8.56 18.972-19.005C38.02 8.56 29.476 0 18.97 0Zm0 29.136A10.013 10.013 0 0 1 8.937 19.084 10.013 10.013 0 0 1 18.97 9.03a10.013 10.013 0 0 1 10.035 10.053c0 5.497-4.469 10.052-10.035 10.052ZM4.625 31.492C1.96 32.435 0 35.026 0 38.09 0 41.937 3.136 45 6.899 45c3.841 0 6.898-3.141 6.898-6.911v-.707c-3.606-1.02-6.742-3.141-9.172-5.89Z" fill="#1565C0"/><path d="M60.285 29.372v8.089H53.7V8.403h12.465c6.585 0 10.348 4.634 10.348 10.288 0 5.969-4.077 10.68-10.897 10.68h-5.33Zm0-14.922v8.953h5.174c2.822 0 4.469-1.806 4.469-4.476s-1.647-4.398-4.704-4.398h-4.939v-.079Zm19.599 23.09V15.706h5.88v2.984c1.489-1.963 3.606-3.298 6.35-3.298v5.968c-4.39 0-6.272 2.435-6.272 6.204v9.974h-5.958Zm36.924-10.838c0 6.282-5.018 11.308-11.681 11.308-6.663 0-11.68-4.947-11.68-11.308 0-6.362 5.016-11.388 11.68-11.388 6.663 0 11.681 5.026 11.681 11.388Zm-17.56 0c0 3.455 2.43 6.047 5.722 6.047 3.293 0 5.958-2.592 5.958-6.047 0-3.534-2.508-6.048-5.879-6.048-3.371 0-5.802 2.514-5.802 6.048Zm26.261-8.796c1.098-1.257 3.293-2.592 6.35-2.592 5.096 0 8.388 3.534 8.388 8.796v13.35h-5.879V25.13c0-2.59-1.411-4.397-3.998-4.397-2.901 0-4.782 1.806-4.782 4.87V37.46h-5.88V15.707h5.801v2.199Zm30.652 18.848C154.123 42.565 151.536 45 146.126 45h-2.116v-5.34h1.803c1.96 0 3.214-1.1 3.998-2.827l-8.075-21.205h6.742l4.469 13.43 4.39-13.43h6.114l-7.29 21.126Zm6.977.786v-6.126h6.114v6.125h-6.114Zm9.564-23.718V8.403h5.88v5.419h-5.88Zm0 23.717V15.707h5.88V37.46h-5.88v.078ZM205 26.702c0 6.282-5.017 11.308-11.681 11.308-6.663 0-11.68-4.947-11.68-11.308 0-6.362 5.017-11.388 11.68-11.388 6.664 0 11.681 5.026 11.681 11.388Zm-17.56 0c0 3.455 2.43 6.047 5.723 6.047 3.292 0 5.958-2.592 5.958-6.047 0-3.534-2.509-6.048-5.88-6.048s-5.801 2.514-5.801 6.048Z" fill="#fff"/></g><defs><clipPath id="a"><path fill="#fff" d="M0 0h205v45H0z"/></clipPath></defs></svg>