<svg width="30" height="20" fill="none" xmlns="http://www.w3.org/2000/svg"><path d="M29.482 20H.517A.522.522 0 0 1 0 19.474V.527C0 .236.232 0 .517 0h28.965c.285 0 .517.236.517.527v18.947c0 .29-.232.526-.517.526Z" fill="#F5F5F5"/><path d="M29.999 1.539H0V.527C0 .236.232 0 .517 0h28.965c.285 0 .517.236.517.527v1.012Zm0 4.615H0v1.538h29.999V6.154Zm0-3.077H0v1.538h29.999V3.077Zm0 7.693H.517A.522.522 0 0 1 0 10.242V9.231h29.999v1.538Zm0 4.615H0v1.539h29.999v-1.539ZM29.482 20H.517A.522.522 0 0 1 0 19.474v-1.012h29.999v1.012c0 .29-.232.526-.517.526Zm.517-7.692H0v1.538h29.999v-1.538Z" fill="#FF4B55"/><path d="M13.448 0H.518A.522.522 0 0 0 0 .526v9.717c0 .29.232.526.517.526h12.93a.522.522 0 0 0 .518-.526V.526A.522.522 0 0 0 13.448 0Z" fill="#41479B"/><path d="m1.453 1.208.115.35.362.002c.047 0 .066.062.028.09l-.29.219.108.35c.015.046-.036.084-.075.056l-.294-.214-.294.214a.049.049 0 0 1-.075-.055l.109-.351-.291-.219c-.038-.028-.018-.09.028-.09l.362-.002.115-.35a.048.048 0 0 1 .092 0Zm0 1.828.115.35.362.002c.047 0 .066.061.028.09l-.29.218.108.351c.015.046-.036.084-.075.056l-.294-.214-.294.214a.049.049 0 0 1-.075-.055l.109-.352-.291-.218c-.038-.029-.018-.09.028-.09l.362-.003.115-.35a.048.048 0 0 1 .092 0Zm0 1.827.115.35.362.003c.047 0 .066.06.028.09l-.29.218.108.351a.049.049 0 0 1-.075.055l-.294-.214-.294.214a.049.049 0 0 1-.075-.055l.109-.351-.291-.219c-.038-.028-.018-.089.028-.09l.362-.002.115-.35a.048.048 0 0 1 .092 0Zm0 1.828.115.35.362.002c.047 0 .066.061.028.09l-.29.219.108.35c.015.046-.036.084-.075.056l-.294-.214-.294.214a.049.049 0 0 1-.075-.055l.109-.351-.291-.22c-.038-.028-.018-.088.028-.089l.362-.003.115-.349a.048.048 0 0 1 .092 0Zm0 1.828.115.349.362.003c.047 0 .066.061.028.09l-.29.218.108.351a.05.05 0 0 1-.075.056l-.294-.215-.294.215a.05.05 0 0 1-.075-.056l.109-.35-.291-.22c-.038-.028-.018-.089.028-.09l.362-.002.115-.35a.048.048 0 0 1 .092 0Zm1.399-6.415.114.35.362.002c.047 0 .066.062.029.09l-.291.219.109.35c.014.046-.037.084-.075.056l-.295-.214-.294.214c-.038.028-.089-.01-.075-.055l.11-.351-.292-.22c-.037-.027-.018-.088.029-.089l.362-.002.114-.35a.048.048 0 0 1 .093 0Zm0 1.828.114.35.362.002c.047 0 .066.061.029.09l-.291.218.109.352c.014.045-.037.083-.075.055l-.295-.214-.294.214c-.038.028-.089-.01-.075-.055l.11-.352-.292-.218c-.037-.029-.018-.09.029-.09l.362-.003.114-.35a.048.048 0 0 1 .093 0Zm0 1.828.114.349.362.003c.047 0 .066.061.029.09l-.291.218.109.351c.014.046-.037.083-.075.056l-.295-.215-.294.215c-.038.027-.089-.01-.075-.056l.11-.35-.292-.22c-.037-.028-.018-.089.029-.09l.362-.002.114-.35a.048.048 0 0 1 .093 0Zm0 1.827.114.35.362.002c.047 0 .066.062.029.09l-.291.219.109.35c.014.046-.037.084-.075.056l-.295-.214-.294.214c-.038.028-.089-.01-.075-.055l.11-.351-.292-.219c-.037-.028-.018-.09.029-.09l.362-.002.114-.35a.048.048 0 0 1 .093 0Zm1.39-6.379.115.35.362.002c.047 0 .066.062.028.09l-.29.219.108.35c.015.046-.036.084-.074.056l-.295-.214-.294.214c-.038.028-.09-.01-.075-.055l.109-.351-.291-.22c-.038-.028-.018-.088.028-.089l.362-.002.115-.35a.048.048 0 0 1 .092 0Zm0 1.828.115.35.362.002c.047 0 .066.061.028.09l-.29.218.108.351c.015.046-.036.083-.074.056l-.295-.214-.294.214a.05.05 0 0 1-.075-.056l.109-.35-.291-.22c-.038-.028-.018-.089.028-.09l.362-.002.115-.35a.048.048 0 0 1 .092 0Zm0 1.827.115.35.362.002c.047 0 .066.062.028.09l-.29.219.108.35c.015.046-.036.084-.074.056l-.295-.214-.294.214c-.038.028-.09-.01-.075-.055l.109-.351-.291-.219c-.038-.028-.018-.09.028-.09l.362-.002.115-.35a.048.048 0 0 1 .092 0Zm0 1.828.115.35.362.002c.047 0 .066.062.028.09l-.29.219.108.35c.015.046-.036.084-.074.056l-.295-.214-.294.214c-.038.028-.09-.01-.075-.055l.109-.351-.291-.22c-.038-.027-.018-.088.028-.089l.362-.002.115-.35a.048.048 0 0 1 .092 0Zm0 1.828.115.349.362.003c.047 0 .066.061.028.09l-.29.218.108.351c.015.046-.036.083-.074.056l-.295-.215-.294.215a.05.05 0 0 1-.075-.056l.109-.35-.291-.22c-.038-.028-.018-.089.028-.09l.362-.002.115-.35a.048.048 0 0 1 .092 0Zm1.395-6.415.114.35.362.002c.047 0 .067.062.029.09l-.291.219.109.35c.014.046-.037.084-.075.056l-.294-.214-.295.214c-.038.028-.089-.01-.075-.055l.11-.351-.292-.22c-.037-.027-.018-.088.029-.089l.362-.002.114-.35a.048.048 0 0 1 .093 0Zm0 1.828.114.35.362.002c.047 0 .067.061.029.09l-.291.218.109.352c.014.045-.037.083-.075.055l-.294-.214-.295.214c-.038.028-.089-.01-.075-.055l.11-.352-.292-.218c-.037-.029-.018-.09.029-.09l.362-.003.114-.35a.048.048 0 0 1 .093 0Zm0 1.828.114.349.362.003c.047 0 .067.061.029.09l-.291.218.109.351c.014.046-.037.083-.075.056l-.294-.215-.295.215c-.038.027-.089-.01-.075-.056l.11-.35-.292-.22c-.037-.028-.018-.089.029-.09l.362-.002.114-.35a.048.048 0 0 1 .093 0Zm0 1.827.114.35.362.002c.047 0 .067.062.029.09l-.291.219.109.35c.014.046-.037.084-.075.056l-.294-.214-.295.214c-.038.028-.089-.01-.075-.055l.11-.351-.292-.219c-.037-.028-.018-.09.029-.09l.362-.002.114-.35a.048.048 0 0 1 .093 0Zm1.394-6.379.115.35.362.002c.047 0 .066.062.028.09l-.29.219.109.35c.014.046-.037.084-.075.056l-.295-.214-.294.214c-.038.028-.09-.01-.075-.055l.11-.351-.292-.22c-.038-.028-.018-.088.029-.089l.361-.002.115-.35a.048.048 0 0 1 .092 0Zm0 1.828.115.35.362.002c.047 0 .066.061.028.09l-.29.218.109.351c.014.046-.037.083-.075.056l-.295-.214-.294.214a.05.05 0 0 1-.075-.056l.11-.35-.292-.22c-.038-.028-.018-.089.029-.09l.361-.002.115-.35a.049.049 0 0 1 .092 0Zm0 1.827.115.35.362.002c.047 0 .066.062.028.09l-.29.219.109.35c.014.046-.037.084-.075.056l-.295-.214-.294.214c-.038.028-.09-.01-.075-.055l.11-.351-.292-.219c-.038-.028-.018-.09.029-.09l.361-.002.115-.35a.049.049 0 0 1 .092 0Zm0 1.828.115.35.362.002c.047 0 .066.062.028.09l-.29.219.109.35c.014.046-.037.084-.075.056l-.295-.214-.294.214c-.038.028-.09-.01-.075-.055l.11-.351-.292-.22c-.038-.027-.018-.088.029-.089l.361-.002.115-.35a.048.048 0 0 1 .092 0Zm0 1.828.115.349.362.003c.047 0 .066.061.028.09l-.29.218.109.351c.014.046-.037.083-.075.056l-.295-.215-.294.215a.05.05 0 0 1-.075-.056l.11-.35-.292-.22c-.038-.028-.018-.089.029-.09l.361-.002.115-.35a.048.048 0 0 1 .092 0Zm1.395-6.415.114.35.362.002c.047 0 .067.062.029.09l-.291.219.109.35c.014.046-.037.084-.075.056l-.294-.214-.295.214c-.038.028-.089-.01-.075-.055l.11-.351-.292-.22c-.037-.027-.018-.088.03-.089l.361-.002.114-.35a.048.048 0 0 1 .093 0Zm0 1.828.114.35.362.002c.047 0 .067.061.029.09l-.291.218.109.352c.014.045-.037.083-.075.055l-.294-.214-.295.214c-.038.028-.089-.01-.075-.055l.11-.352-.292-.218c-.037-.029-.018-.09.03-.09l.361-.003.114-.35a.048.048 0 0 1 .093 0Zm0 1.828.114.349.362.003c.047 0 .067.061.029.09l-.291.218.109.351c.014.046-.037.083-.075.056l-.294-.215-.295.215c-.038.027-.089-.01-.075-.056l.11-.35-.292-.22c-.037-.028-.018-.089.03-.09l.361-.002.114-.35a.048.048 0 0 1 .093 0Zm0 1.827.114.35.362.002c.047 0 .067.062.029.09l-.291.219.109.35c.014.046-.037.084-.075.056L8.38 8.44l-.295.214c-.038.028-.089-.01-.075-.055l.11-.351-.292-.219c-.037-.028-.018-.09.03-.09l.361-.002.114-.35a.048.048 0 0 1 .093 0ZM9.82 1.208l.115.35.362.002c.047 0 .066.062.028.09l-.29.219.108.35c.015.046-.036.084-.074.056l-.295-.214-.294.214c-.038.028-.09-.01-.075-.055l.11-.351-.292-.22c-.038-.028-.018-.088.029-.089l.362-.002.114-.35a.048.048 0 0 1 .092 0Zm0 1.828.115.35.362.002c.047 0 .066.061.028.09l-.29.218.108.351c.015.046-.036.083-.074.056l-.295-.214-.294.214a.05.05 0 0 1-.075-.056l.11-.35-.292-.22c-.038-.028-.018-.089.029-.09l.362-.002.114-.35a.048.048 0 0 1 .092 0Zm0 1.827.115.35.362.002c.047 0 .066.062.028.09l-.29.219.108.35c.015.046-.036.084-.074.056l-.295-.214-.294.214c-.038.028-.09-.01-.075-.055l.11-.351-.292-.219c-.038-.028-.018-.09.029-.09l.362-.002.114-.35a.048.048 0 0 1 .092 0Zm0 1.828.115.35.362.002c.047 0 .066.062.028.09l-.29.219.108.35c.015.046-.036.084-.074.056l-.295-.214-.294.214c-.038.028-.09-.01-.075-.055l.11-.351-.292-.22c-.038-.027-.018-.088.029-.089l.362-.002.114-.35a.048.048 0 0 1 .092 0Zm0 1.828.115.349.362.003c.047 0 .066.061.028.09l-.29.218.108.351c.015.046-.036.083-.074.056l-.295-.215-.294.215a.05.05 0 0 1-.075-.056l.11-.35-.292-.22c-.038-.028-.018-.089.029-.09l.362-.002.114-.35a.048.048 0 0 1 .092 0Zm1.391-6.415.115.35.361.002c.047 0 .067.062.03.09l-.292.219.11.35c.013.046-.038.084-.076.056l-.294-.214-.295.214c-.038.028-.088-.01-.074-.055l.109-.351-.291-.22c-.038-.027-.019-.088.028-.089l.362-.002.115-.35a.048.048 0 0 1 .092 0Zm0 1.828.115.35.361.002c.047 0 .067.061.03.09l-.292.218.11.352c.013.045-.038.083-.076.055l-.294-.214-.295.214c-.038.028-.088-.01-.074-.055l.109-.352-.291-.218c-.038-.029-.019-.09.028-.09l.362-.003.115-.35a.048.048 0 0 1 .092 0Zm0 1.828.115.349.361.003c.047 0 .067.061.03.09l-.292.218.11.351c.013.046-.038.083-.076.056l-.294-.215-.295.215c-.038.027-.088-.01-.074-.056l.109-.35-.291-.22c-.038-.028-.019-.089.028-.09l.362-.002.115-.35a.048.048 0 0 1 .092 0Zm0 1.827.115.35.361.002c.047 0 .067.062.03.09l-.292.219.11.35c.013.046-.038.084-.076.056l-.294-.214-.295.214c-.038.028-.088-.01-.074-.055l.109-.351-.291-.219c-.038-.028-.019-.09.028-.09l.362-.002.115-.35a.049.049 0 0 1 .092 0Zm1.395-6.379.114.35.362.002c.047 0 .066.062.029.09l-.292.219.11.35c.014.046-.037.084-.075.056l-.295-.214-.294.214c-.038.028-.089-.01-.075-.055l.11-.351-.292-.22a.05.05 0 0 1 .029-.089l.362-.002.114-.35a.048.048 0 0 1 .093 0Zm0 1.828.114.35.362.002c.047 0 .066.061.029.09l-.292.218.11.351c.014.046-.037.083-.075.056l-.295-.214-.294.214c-.038.027-.089-.01-.075-.056l.11-.35-.292-.22c-.037-.028-.018-.089.029-.09l.362-.002.114-.35a.048.048 0 0 1 .093 0Zm0 1.827.114.35.362.002c.047 0 .066.062.029.09l-.292.219.11.35c.014.046-.037.084-.075.056l-.295-.214-.294.214c-.038.028-.089-.01-.075-.055l.11-.351-.292-.219c-.037-.028-.018-.09.029-.09l.362-.002.114-.35a.048.048 0 0 1 .093 0Zm0 1.828.114.35.362.002c.047 0 .066.062.029.09l-.292.219.11.35c.014.046-.037.084-.075.056l-.295-.214-.294.214c-.038.028-.089-.01-.075-.055l.11-.351-.292-.22c-.037-.027-.018-.088.029-.089l.362-.002.114-.35a.048.048 0 0 1 .093 0Zm0 1.828.114.349.362.003c.047 0 .066.061.029.09l-.292.218.11.351c.014.046-.037.083-.075.056l-.295-.215-.294.215c-.038.027-.089-.01-.075-.056l.11-.35-.292-.22c-.037-.028-.018-.089.029-.09l.362-.002.114-.35a.048.048 0 0 1 .093 0Z" fill="#F5F5F5"/></svg>