<svg width="20" height="20" fill="none" xmlns="http://www.w3.org/2000/svg"><path fill-rule="evenodd" clip-rule="evenodd" d="M15.832 10c0-.5.333-.833.833-.833.5 0 .834.333.834.833v5.833c0 1.417-1.084 2.5-2.5 2.5H3.332c-1.417 0-2.5-1.083-2.5-2.5V4.167c0-1.417 1.083-2.5 2.5-2.5h9.167c.5 0 .833.333.833.833 0 .5-.333.833-.833.833H3.332c-.5 0-.833.334-.833.834v11.666c0 .5.333.834.833.834h11.667c.5 0 .833-.334.833-.834V10Zm-6.083 2.25 9.166-9.167a.806.806 0 0 0 0-1.166.806.806 0 0 0-1.166 0L9.165 10.5 7.25 8.583a.806.806 0 0 0-1.167 0 .806.806 0 0 0 0 1.167l2.5 2.5c.167.167.333.25.583.25.25 0 .417-.083.584-.25Z" fill="#000"/></svg>