<svg width="16" height="17" fill="none" xmlns="http://www.w3.org/2000/svg"><g clip-path="url(#a)"><path d="M8 11.833a1.333 1.333 0 1 0 0-2.666 1.333 1.333 0 0 0 0 2.666Zm4-6h-.667V4.5a3.335 3.335 0 0 0-6.667 0h1.267c0-1.14.926-2.067 2.066-2.067 1.14 0 2.067.927 2.067 2.067v1.333H3.999c-.736 0-1.333.597-1.333 1.334v6.666c0 .737.597 1.334 1.333 1.334h8c.737 0 1.334-.597 1.334-1.334V7.167c0-.737-.597-1.334-1.334-1.334Zm0 8H4V7.167h8v6.666Z" fill="#E0E0E0"/></g><defs><clipPath id="a"><path fill="#fff" transform="translate(0 .5)" d="M0 0h16v16H0z"/></clipPath></defs></svg>