<svg width="45" height="45" fill="none" xmlns="http://www.w3.org/2000/svg"><path d="M45 22.5C45 34.926 34.926 45 22.5 45S0 34.926 0 22.5 10.074 0 22.5 0 45 10.074 45 22.5Z" fill="#1565C0"/><path d="M27.01 16.93c.25 0 .448.085.595.255.159.159.238.368.238.629V28.2a.91.91 0 0 1-.238.646.828.828 0 0 1-.612.238c-.295 0-.521-.113-.68-.34l-6.664-8.79V28.2a.91.91 0 0 1-.238.646c-.147.159-.346.238-.595.238-.25 0-.448-.08-.595-.238-.147-.159-.221-.374-.221-.646V17.814c0-.26.08-.47.238-.63a.8.8 0 0 1 .612-.254c.295 0 .521.113.68.34l6.664 8.806v-8.262c0-.26.074-.47.221-.63a.747.747 0 0 1 .595-.254Z" fill="#fff"/></svg>