<svg width="24" height="24" fill="none" xmlns="http://www.w3.org/2000/svg"><g clip-path="url(#a)"><path d="M12 24c6.627 0 12-5.373 12-12S18.627 0 12 0 0 5.373 0 12s5.373 12 12 12Z" fill="#5C6BC0"/><path d="M17.796 8.047c-1.728-1.26-3.342-1.322-3.647-1.322l-.197.19c2.204.63 3.275 1.614 3.275 1.614-5.75-2.834-10.502-.095-10.61-.068 0 0 1.064-1.05 3.417-1.614l-.143-.142S8.108 6.637 6.19 8.034c0 0-1.919 3.295-1.919 7.356 0 0 1.064 1.823 3.986 1.891 0 0 .428-.556.855-1.05-1.641-.489-2.278-1.472-2.278-1.472s.142.068.359.21h.061c.034 0 .048.014.061.034v.007c.014.014.034.034.061.034 3.485 1.417 6.4 1.742 9.729-.353 0 0-.637.984-2.346 1.472.353.488.848 1.05.848 1.05 2.922-.06 4.054-1.884 4.122-1.81 0-4.054-1.933-7.356-1.933-7.356ZM9.54 14.142c-.746 0-1.35-.63-1.35-1.396 0-.773.61-1.404 1.35-1.404h.007c.745 0 1.349.63 1.349 1.397-.007.773-.61 1.403-1.356 1.403Zm4.84 0c-.745 0-1.349-.63-1.349-1.396 0-.773.61-1.404 1.35-1.404.745 0 1.349.63 1.349 1.397 0 .773-.604 1.403-1.35 1.403Z" fill="#fff"/></g><defs><clipPath id="a"><path fill="#fff" d="M0 0h24v24H0z"/></clipPath></defs></svg>